<svg width="96" height="96" viewBox="0 0 96 96" fill="none" xmlns="http://www.w3.org/2000/svg">
  <circle cx="48" cy="48" r="46" fill="#fff" stroke="#2563eb" stroke-width="4"/>
  <circle cx="48" cy="48" r="36" fill="#e0e7ff"/>
  <g>
    <ellipse cx="48" cy="60" rx="18" ry="8" fill="#2563eb" fill-opacity="0.15"/>
    <path d="M48 28c7 0 13 5.5 13 13 0 7.5-6 13-13 13s-13-5.5-13-13c0-7.5 6-13 13-13zm0 4c-5 0-9 4-9 9s4 9 9 9 9-4 9-9-4-9-9-9z" fill="#2563eb"/>
    <path d="M48 44c-7 0-13 5.5-13 13v3c0 1.1.9 2 2 2h22c1.1 0 2-.9 2-2v-3c0-7.5-6-13-13-13zm-9 13c0-5 4-9 9-9s9 4 9 9v1H39v-1z" fill="#2563eb"/>
    <text x="48" y="80" text-anchor="middle" font-size="12" fill="#2563eb" font-family="sans-serif">สสจ.มุกดาหาร</text>
  </g>
</svg>
